<svg class="icon" viewBox="0 0 1024 1024" version="1.1" xmlns="http://www.w3.org/2000/svg"
     data-spm-anchor-id="a313x.search_index.0.i7.27da3a81A0466N" width="48" height="48">
    <path d="M314.63619 196.900571c13.165714 2.681905 25.478095 9.313524 35.181715 19.017143l154.819047 154.819048 0.292572-0.292572L758.247619 624.542476l-168.935619 168.96c-48.761905 48.761905-130.340571 46.250667-182.223238-5.632L92.452571 473.234286c-25.916952-25.916952-27.184762-66.730667-2.803809-91.111619a59.904 59.904 0 0 1 34.06019-16.871619l103.399619-14.701715 14.701715-103.399619c4.973714-34.864762 37.571048-57.392762 72.825904-50.249143z m516.876191 58.953143l101.595429 101.595429a64.316952 64.316952 0 0 1-0.146286 90.965333l-145.091048 145.066667L535.259429 340.114286l84.016761-83.919238c58.684952-58.709333 153.721905-58.855619 212.236191-0.341334z"
          fill="#417CE8"/>
</svg>